<?xml version="1.0" standalone="no"?>
<!DOCTYPE svg PUBLIC "-//W3C//DTD SVG 20010904//EN"
 "http://www.w3.org/TR/2001/REC-SVG-20010904/DTD/svg10.dtd">
<svg version="1.0" xmlns="http://www.w3.org/2000/svg"
 width="500.000000pt" height="500.000000pt" viewBox="0 0 500.000000 500.000000"
 preserveAspectRatio="xMidYMid meet">
<metadata>
Created by potrace 1.16, written by Peter Selinger 2001-2019
</metadata>
<g transform="translate(0.000000,500.000000) scale(0.100000,-0.100000)"
fill="#000000" stroke="none">
<path d="M2022 3738 c15 -20 24 -38 21 -42 -3 -3 2 -15 12 -26 10 -11 16 -22
14 -25 -3 -2 -33 5 -68 15 -75 24 -81 24 -81 5 0 -8 9 -15 20 -15 11 0 20 -4
20 -10 0 -5 11 -12 25 -16 39 -10 30 -30 -20 -44 -24 -7 -58 -23 -75 -35 -27
-20 -29 -24 -13 -27 10 -2 28 2 41 10 14 9 22 10 22 3 0 -7 7 -7 25 1 37 17
39 6 6 -48 -16 -27 -32 -60 -36 -72 -6 -21 -5 -23 13 -13 12 6 24 20 27 31 3
11 13 20 20 20 8 0 19 9 25 20 6 11 15 18 20 15 5 -3 14 4 20 15 25 47 25 13
-1 -87 -29 -110 -58 -298 -47 -308 3 -4 58 28 121 70 l115 77 43 -28 c40 -24
42 -25 24 -4 -11 12 -32 30 -46 41 l-26 18 -79 -64 -79 -65 -3 43 c-3 41 13
243 24 300 6 30 24 27 24 -4 0 -11 4 -18 9 -14 6 3 15 -5 22 -17 7 -13 18 -27
25 -31 8 -4 14 -16 14 -25 0 -9 7 -26 15 -36 14 -19 15 -19 15 9 0 15 -8 52
-17 81 -19 60 -13 76 17 49 11 -10 20 -15 20 -10 0 4 10 1 23 -7 12 -8 30 -17
40 -21 47 -17 -34 64 -103 103 -18 10 -11 18 18 23 12 2 25 6 28 10 4 4 16 7
26 7 21 0 24 16 4 23 -8 3 -39 3 -70 0 -32 -3 -56 -2 -56 4 0 5 18 29 40 53
22 24 40 46 40 47 0 2 -18 -6 -39 -17 -24 -12 -50 -37 -65 -62 l-25 -42 -10
28 c-6 15 -11 31 -11 36 0 14 -50 69 -74 82 -19 10 -18 8 6 -24z"/>
<path d="M3262 3726 c-17 -20 -35 -49 -38 -64 -11 -44 -14 -44 -47 0 -31 40
-111 99 -92 67 5 -7 17 -20 27 -27 10 -7 16 -17 13 -22 -3 -5 4 -14 15 -20 39
-21 22 -32 -47 -28 -81 4 -94 -13 -23 -31 56 -14 61 -23 26 -39 -30 -14 -94
-69 -107 -93 -8 -16 -3 -15 36 6 25 14 45 21 45 15 0 -5 9 -1 21 11 29 29 34
18 15 -37 -9 -26 -16 -61 -16 -77 0 -25 2 -28 15 -17 8 7 15 21 15 32 0 10 7
21 15 24 8 4 15 12 15 20 0 7 9 18 20 24 11 6 20 20 20 30 0 35 17 22 23 -17
12 -74 28 -305 22 -323 -4 -12 6 -25 35 -44 l40 -26 0 22 c0 50 -32 228 -56
317 -25 91 -26 129 -3 78 7 -15 15 -24 20 -22 4 3 14 -4 23 -16 8 -12 19 -18
26 -14 7 4 16 -5 22 -23 14 -37 53 -53 43 -19 -4 12 -20 44 -36 70 -35 58 -37
72 -7 56 13 -7 43 -14 67 -16 45 -4 45 -4 26 17 -10 11 -42 28 -72 37 -57 18
-69 39 -28 49 14 3 25 10 25 15 0 5 7 9 15 9 8 0 15 6 15 14 0 15 -45 9 -105
-14 -15 -6 -30 -9 -32 -7 -6 7 9 37 19 37 5 0 6 5 3 11 -4 5 1 19 10 29 9 10
15 24 13 31 -2 6 -18 -5 -36 -25z"/>
<path d="M2670 2940 c-154 -31 -325 -50 -465 -51 -112 -1 -124 -3 -85 -11 25
-6 126 -11 225 -11 149 -1 200 2 295 21 165 32 308 38 465 18 72 -9 141 -18
155 -21 l25 -6 -25 11 c-14 6 -70 23 -125 36 -139 35 -332 41 -465 14z"/>
<path d="M2765 2884 c-16 -3 -75 -14 -130 -24 -138 -27 -253 -40 -365 -41
l-95 -1 60 -10 c81 -13 324 -3 410 17 138 32 354 36 500 10 29 -5 29 -5 5 6
-72 30 -300 56 -385 43z"/>
<path d="M1316 2531 c-11 -12 -16 -31 -14 -53 3 -28 10 -37 50 -58 53 -28 63
-42 47 -71 -9 -17 -19 -20 -57 -18 -36 3 -47 0 -47 -11 0 -17 51 -25 102 -15
26 5 38 14 50 40 23 48 8 77 -51 101 -39 16 -46 23 -46 47 0 25 3 27 45 27 33
0 45 4 45 15 0 24 -102 21 -124 -4z"/>
<path d="M2782 2429 l3 -124 72 0 c98 0 116 17 121 113 4 62 2 71 -21 97 -23
27 -32 30 -101 33 l-77 4 3 -123z m121 80 c12 -7 25 -17 29 -23 12 -17 9 -95
-3 -119 -16 -30 -28 -37 -66 -37 l-33 0 0 95 0 95 26 0 c14 0 35 -5 47 -11z"/>
<path d="M1507 2474 c-4 -4 -7 -35 -7 -68 0 -85 16 -106 80 -106 79 0 80 1 80
96 0 75 -2 84 -19 84 -21 0 -31 -35 -31 -111 0 -41 -3 -49 -19 -49 -30 0 -40
21 -43 90 -2 49 -7 66 -18 68 -9 1 -19 0 -23 -4z"/>
<path d="M1720 2390 c0 -83 2 -90 20 -90 17 0 19 8 22 73 3 69 4 72 28 72 24
0 25 -3 28 -72 3 -70 4 -73 27 -73 24 0 25 2 25 69 0 62 2 70 21 76 31 10 38
-3 41 -75 3 -57 5 -65 23 -65 16 0 20 8 23 60 6 103 -25 139 -90 104 -15 -8
-27 -8 -45 2 -18 10 -31 10 -54 2 -17 -7 -31 -7 -35 -2 -3 5 -12 9 -20 9 -11
0 -14 -18 -14 -90z"/>
<path d="M2032 2393 c3 -82 4 -88 25 -91 21 -3 22 1 25 70 3 70 4 73 28 73 24
0 25 -3 28 -72 3 -65 5 -73 22 -73 18 0 20 7 20 58 0 64 16 96 46 90 16 -3 19
-13 22 -76 3 -64 5 -72 22 -72 18 0 20 7 20 85 0 82 -1 85 -25 91 -14 3 -39 1
-56 -6 -23 -10 -33 -10 -42 -1 -15 15 -60 14 -76 -1 -11 -10 -14 -10 -18 0 -3
6 -13 12 -24 12 -18 0 -20 -6 -17 -87z"/>
<path d="M2378 2470 c-47 -28 -42 -136 8 -159 36 -16 104 -14 104 3 0 11 -10
13 -39 9 -32 -4 -41 -1 -54 17 -9 13 -14 27 -11 32 3 4 32 8 66 8 l61 0 -7 33
c-3 17 -16 40 -27 50 -23 19 -74 22 -101 7z"/>
<path d="M3203 2465 c-28 -20 -38 -66 -23 -110 14 -43 35 -55 94 -55 35 0 46
4 46 15 0 13 -7 15 -35 9 -27 -5 -41 -2 -55 11 -37 34 -25 45 46 45 l66 0 -7
33 c-4 17 -16 40 -27 50 -25 21 -76 22 -105 2z"/>
<path d="M3390 2466 c0 -10 14 -16 42 -18 30 -2 44 -8 46 -19 2 -13 -8 -18
-43 -23 -35 -6 -48 -13 -54 -29 -17 -46 13 -77 73 -77 64 0 69 7 64 89 -4 83
-11 91 -80 91 -35 0 -48 -4 -48 -14z"/>
<path d="M3577 2473 c-3 -5 -4 -44 -3 -88 1 -74 3 -80 23 -83 21 -3 22 1 25
70 3 70 4 73 28 73 24 0 25 -3 30 -70 4 -62 7 -70 25 -70 18 0 20 8 23 67 2
57 6 68 23 73 31 10 38 -3 41 -75 3 -59 5 -65 26 -68 21 -3 22 -1 22 75 0 48
-5 84 -12 91 -15 15 -53 15 -80 1 -15 -8 -27 -8 -45 2 -18 10 -31 10 -54 2
-17 -7 -31 -7 -35 -2 -6 11 -31 12 -37 2z"/>
</g>
</svg>
